<mxfile host="app.diagrams.net" modified="2024-06-23T10:55:44.686Z" agent="Mozilla/5.0 (Macintosh; Intel Mac OS X 10_15_7) AppleWebKit/537.36 (KHTML, like Gecko) Chrome/126.0.0.0 Safari/537.36" version="24.6.2" etag="FCUb_DAE9XAwA-S45nRQ" type="github">
  <diagram name="Page-1" id="ojK6p8z5OmKC4jGp_M6G">
    <mxGraphModel>
      <root>
        <mxCell id="0" />
        <mxCell id="1" parent="0" />
      </root>
    </mxGraphModel>
  </diagram>
</mxfile>
